<svg version="1.1" xmlns="http://www.w3.org/2000/svg" viewBox="0 0 763.9851091251928 177" width="1527.9702182503856" height="354">
  <!-- svg-source:excalidraw -->
  
  <defs>
    <style>
      @font-face {
        font-family: "Virgil";
        src: url("https://excalidraw.com/Virgil.woff2");
      }
      @font-face {
        font-family: "Cascadia";
        src: url("https://excalidraw.com/Cascadia.woff2");
      }
    </style>
  </defs>
  <rect x="0" y="0" width="763.9851091251928" height="177" fill="#ffffff"></rect><g stroke-linecap="round" transform="translate(140.57175824553707 10) rotate(0 238 78.5)"><path d="M39.25 0 M39.25 0 C174.28 -2.08, 309.12 -1.01, 436.75 0 M39.25 0 C176.94 -1.16, 314.64 -1.37, 436.75 0 M436.75 0 C462.73 -1.83, 477.7 11.21, 476 39.25 M436.75 0 C463.55 -0.36, 478.26 14.48, 476 39.25 M476 39.25 C476.05 68.62, 476.88 102.39, 476 117.75 M476 39.25 C475.55 69.91, 477.15 100.71, 476 117.75 M476 117.75 C477.95 144.98, 463.23 158.36, 436.75 157 M476 117.75 C473.74 143.08, 463.72 157.15, 436.75 157 M436.75 157 C288.95 156.74, 141.51 156.34, 39.25 157 M436.75 157 C281.32 157.18, 124.92 157.74, 39.25 157 M39.25 157 C11.86 156.42, -0.29 143.94, 0 117.75 M39.25 157 C12.95 155.94, 1.41 142.19, 0 117.75 M0 117.75 C1.47 102.28, 0.35 82.16, 0 39.25 M0 117.75 C0.45 95.87, -0.15 75.12, 0 39.25 M0 39.25 C0.97 11.4, 12.63 1.64, 39.25 0 M0 39.25 C-1.29 11.86, 14.9 -1.88, 39.25 0" stroke="#000000" stroke-width="1" fill="none"></path></g><g stroke-linecap="round"><g transform="translate(384.10910475833447 14.666888014777271) rotate(359.2783959462172 -1.441369549390913 74.24476985681875)"><path d="M0.24 0.64 C-0.42 25.32, -2.67 123, -3.12 147.85" stroke="#000000" stroke-width="1.5" fill="none" stroke-dasharray="8 9"></path></g></g><g stroke-linecap="round"><g transform="translate(378.57175824553707 70) rotate(0 118.26153831407424 0.26595867946744534)"><path d="M0.11 -0.57 C39.55 -0.2, 196.9 0.94, 236.41 1.11" stroke="#000000" stroke-width="1.5" fill="none" stroke-dasharray="8 9"></path></g></g><g transform="translate(235.07175824553707 58.5) rotate(0 28.5 20)"><text x="0" y="30" font-family="Virgil, Segoe UI Emoji" font-size="28px" fill="#000000" text-anchor="start" style="white-space: pre;" direction="ltr">资产</text></g><g transform="translate(451.07175824553707 17.5) rotate(0 28.5 20)"><text x="0" y="30" font-family="Virgil, Segoe UI Emoji" font-size="28px" fill="#000000" text-anchor="start" style="white-space: pre;" direction="ltr">负债</text></g><g transform="translate(442.57175824553707 75.5) rotate(0 56.5 20)"><text x="0" y="30" font-family="Virgil, Segoe UI Emoji" font-size="28px" fill="#000000" text-anchor="start" style="white-space: pre;" direction="ltr">股东权益</text></g><g transform="translate(458.07175824553707 132.5) rotate(0 40.5 11.5)"><text x="0" y="17" font-family="Virgil, Segoe UI Emoji" font-size="16px" fill="#a61e4d" text-anchor="start" style="white-space: pre;" direction="ltr">剩余求偿权</text></g><g stroke-linecap="round"><g transform="translate(135.26332912676315 88.59318340253054) rotate(0 -61.829655006794724 -0.12199485441652769)"><path d="M-0.39 0.89 C-21.12 0.63, -103.81 -1, -124.44 -1.13 M1.6 0.31 C-19.25 0.17, -104.21 0.49, -125.26 0.12" stroke="#a61e4d" stroke-width="2" fill="none"></path></g><g transform="translate(135.26332912676315 88.59318340253054) rotate(0 -61.829655006794724 -0.12199485441652769)"><path d="M-1.81 -7.27 C-0.24 -7.51, 2.04 -6.68, 3.49 -5.79 C4.94 -4.9, 6.16 -3.62, 6.9 -1.92 C7.64 -0.23, 8.4 2.5, 7.93 4.38 C7.46 6.26, 5.71 8.68, 4.1 9.36 C2.49 10.04, 0.11 8.87, -1.74 8.47 C-3.58 8.08, -5.73 8.42, -6.95 7.02 C-8.17 5.61, -8.96 1.98, -9.05 0.03 C-9.13 -1.92, -8.69 -3.32, -7.47 -4.69 C-6.25 -6.06, -2.95 -7.56, -1.74 -8.2 C-0.53 -8.85, -0.24 -8.87, -0.18 -8.56 M2.18 -7.76 C3.79 -7.02, 7.3 -4.75, 8.28 -3.04 C9.27 -1.34, 8.6 0.34, 8.1 2.46 C7.6 4.57, 7.06 8.56, 5.28 9.65 C3.5 10.73, -0.51 9.34, -2.61 8.97 C-4.71 8.6, -6.16 8.79, -7.34 7.42 C-8.53 6.05, -9.92 2.68, -9.75 0.76 C-9.57 -1.16, -7.57 -2.92, -6.27 -4.1 C-4.97 -5.27, -3.75 -5.76, -1.97 -6.31 C-0.18 -6.85, 3.76 -7.07, 4.45 -7.37 C5.15 -7.67, 2.52 -8.18, 2.22 -8.08" stroke="none" stroke-width="0" fill="#a61e4d"></path></g><g transform="translate(135.26332912676315 88.59318340253054) rotate(0 -61.829655006794724 -0.12199485441652769)"><path d="M-124.41 -0.87 L-113.46 -7.46 L-110.58 5.67 L-124.7 -1.29" stroke="none" stroke-width="0" fill="#a61e4d" fill-rule="evenodd"></path><path d="M-124.15 0.43 C-121.97 -1.06, -116.46 -3.54, -112.88 -7.46 M-125.46 -0.24 C-122.19 -1.72, -117.92 -3.04, -111.19 -6.7 M-111.63 -5.87 C-112.01 -0.04, -110.89 4.58, -111.51 6.99 M-112.19 -5.8 C-110.99 -4.11, -111.42 -1.15, -112.33 6.14 M-111.88 6.91 C-115.7 5.17, -121.33 1.14, -125.96 1.08 M-111.81 6.36 C-117.19 4.26, -122.23 1.58, -124.97 -0.25 M-125.26 0.12 C-125.26 0.12, -125.26 0.12, -125.26 0.12 M-125.26 0.12 C-125.26 0.12, -125.26 0.12, -125.26 0.12" stroke="#a61e4d" stroke-width="2" fill="none"></path></g></g><g stroke-linecap="round"><g transform="translate(620.0755896631615 91.8623075071967) rotate(0 66.64226652513958 1.3175072000398131)"><path d="M0.55 1.12 C22.97 1.2, 111.73 0.63, 133.91 0.83 M-0.62 0.66 C21.69 0.86, 110.72 2.03, 132.93 1.97" stroke="#a61e4d" stroke-width="2" fill="none"></path></g><g transform="translate(620.0755896631615 91.8623075071967) rotate(0 66.64226652513958 1.3175072000398131)"><path d="M1.23 2.19 L15.35 -5.1 L14.78 7.53 L1.53 1.64" stroke="none" stroke-width="0" fill="#a61e4d" fill-rule="evenodd"></path><path d="M1.95 1.05 C2.96 -0.96, 8.16 -1.28, 15.09 -5.74 M0.27 1.3 C5.38 -0.32, 8.56 -2.59, 14.08 -4.67 M15.27 -6.49 C14.94 -2.33, 14.25 3.22, 13.84 8.41 M14.5 -5.27 C14.45 -2.27, 14.75 0.3, 14.19 6.98 M13.5 7.29 C9.07 6.44, 3.04 2.62, -0.51 -0.08 M14.07 7.08 C9.8 6.18, 6.38 3, 0.72 0.84 M0.55 1.12 C0.55 1.12, 0.55 1.12, 0.55 1.12 M0.55 1.12 C0.55 1.12, 0.55 1.12, 0.55 1.12" stroke="#a61e4d" stroke-width="2" fill="none"></path></g><g transform="translate(620.0755896631615 91.8623075071967) rotate(0 66.64226652513958 1.3175072000398131)"><path d="M130.3 -6.23 C131.74 -6.69, 134.79 -6.13, 136.51 -5.2 C138.23 -4.27, 140.06 -2.32, 140.61 -0.66 C141.17 0.99, 140.54 3.17, 139.85 4.74 C139.17 6.31, 137.88 7.86, 136.48 8.76 C135.08 9.67, 132.97 10.46, 131.46 10.17 C129.95 9.88, 128.48 8.34, 127.42 7.03 C126.36 5.72, 125.34 4.05, 125.09 2.29 C124.85 0.54, 124.77 -2.07, 125.93 -3.49 C127.09 -4.91, 130.94 -5.73, 132.05 -6.21 C133.15 -6.69, 132.62 -6.43, 132.57 -6.36 M130.55 -5.8 C132.04 -6.72, 134.07 -6.77, 135.74 -6.2 C137.41 -5.63, 139.9 -3.86, 140.57 -2.39 C141.23 -0.92, 140.05 0.69, 139.74 2.61 C139.43 4.52, 139.52 7.95, 138.71 9.12 C137.91 10.3, 136.67 9.93, 134.91 9.67 C133.16 9.42, 129.9 8.36, 128.19 7.61 C126.47 6.87, 125.1 7.01, 124.61 5.19 C124.13 3.38, 124.28 -1.41, 125.28 -3.26 C126.27 -5.11, 129.67 -5.69, 130.59 -5.92 C131.5 -6.16, 130.9 -4.59, 130.77 -4.66" stroke="none" stroke-width="0" fill="#a61e4d"></path></g></g><g transform="translate(40.07175824553707 53) rotate(0 32.5 11.5)"><text x="0" y="17" font-family="Virgil, Segoe UI Emoji" font-size="16px" fill="#a61e4d" text-anchor="start" style="white-space: pre;" direction="ltr">钱去哪儿</text></g><g transform="translate(650.071758245537 63.5) rotate(0 40.5 11.5)"><text x="0" y="17" font-family="Virgil, Segoe UI Emoji" font-size="16px" fill="#a61e4d" text-anchor="start" style="white-space: pre;" direction="ltr">钱从哪儿来</text></g></svg>